# xmcd
#
# Track frame offsets:
#	150
#	13886
#	26583
#	38044
#	48795
#	61752
#	74204
#	83768
#	97406
#	110557
#	123512
#	134080
#	146475
#	159784
#	174327
#	188088
#	209919
#
# Disc length: 3346 seconds
#
# Revision: 2
# Processed by: cddbd v1.5.2PL0 Copyright (c) Steve Scherf et al.
# Submitted via: EasyCDDAExtractor 12.0.1.1
#
DISCID=fa0d1011
DTITLE=Various Artist - Ballroom Originals 2 CD1
DYEAR=2006
DGENRE=Dance
TTITLE0=Rosemary Clooney - EW 28 - Beautiful Brown Eyes
TTITLE1=XQ Orchestra - EW 29 - Autumn Winds
TTITLE2=Dean Martin - EW 29 - Dreamy Old New England Moon
TTITLE3=Sträter Orchestra - EW 29 - Watermarck
TTITLE4=Vialli Orchestra - EW 29 - Una Furtiva Lagrima
TTITLE5=Eddie Fisher - EW 29 - I Remember When
TTITLE6=Sträter Orchestra - EW 29 - Oh Mio Bambino
TTITLE7=Rosemary Clooney - EW 29 - Tenderly
TTITLE8=Arturo Chaite - TG 32 - Tango Roulette
TTITLE9=Arturo Chaite - TG 31 - Pizzato Tango
TTITLE10=Conjunto Argentino Y Carlito De Nava - TG 31 - Yira Yira
TTITLE11=Leroy Anderson - TG 30 - Blue Tango
TTITLE12=Conjunto Argentino Y Carlito De Nava - TG 31 - Mi Buenos Aires Querid
TTITLE12=o
TTITLE13=Hugo Del Carril - TG 32 - Adios Pampa Mia
TTITLE14=Conjunto Argentino Y Carlito De Nava - TG 32 - La Cumparsita
TTITLE15=Arturo Chaite - TG 31 - Tango Of The Bell
TTITLE16=Mp3-files - Mp3
EXTD=YEAR: 2006
EXTT0=Slow Waltz, 28 Bpm
EXTT1=Slow Waltz, 29 Bpm
EXTT2=Slow Waltz, 29 Bpm
EXTT3=Slow Waltz, 29 Bpm
EXTT4=Slow Waltz, 29 Bpm
EXTT5=Slow Waltz, 29 Bpm
EXTT6=Slow Waltz, 29 Bpm
EXTT7=Slow Waltz, 29 Bpm
EXTT8=Tango, 32 Bpm
EXTT9=Tango, 31 Bpm
EXTT10=Tango, 31 Bpm
EXTT11=Tango, 30 Bpm
EXTT12=Tango, 31 Bpm
EXTT13=Tango, 32 Bpm
EXTT14=Tango, 32 Bpm
EXTT15=Tango, 31 Bpm
EXTT16=
PLAYORDER=
